<svg width="41" height="32" viewBox="0 0 41 32" xmlns="http://www.w3.org/2000/svg">
    <path d="M27.05 21.8c-2.005 0-3.652-1.816-3.652-4.052 0-2.234 1.596-4.067 3.652-4.067 2.057 0 3.685 1.833 3.649 4.067-.035 2.236-1.61 4.052-3.65 4.052m-13.484 0c-2.002 0-3.657-1.816-3.657-4.052 0-2.234 1.597-4.067 3.65-4.067s3.694 1.833 3.659 4.067c-.035 2.236-1.612 4.052-3.652 4.052M34.397 3.404A33.612 33.612 0 0 0 26.023.827a22.96 22.96 0 0 0-1.074 2.181 31.2 31.2 0 0 0-9.294 0 23.061 23.061 0 0 0-1.072-2.18A33.79 33.79 0 0 0 6.202 3.41C.902 11.251-.535 18.898.184 26.436a33.76 33.76 0 0 0 10.27 5.156 24.633 24.633 0 0 0 2.2-3.547 21.735 21.735 0 0 1-3.463-1.654c.29-.21.574-.428.848-.638a24.132 24.132 0 0 0 20.536 0c.278.227.562.443.849.638a21.82 21.82 0 0 1-3.47 1.657 24.407 24.407 0 0 0 2.2 3.544A33.606 33.606 0 0 0 40.43 26.44c.843-8.743-1.44-16.319-6.034-23.036" fill="#FFF" fill-rule="evenodd"/>
</svg>
