<svg width="26" height="20" viewBox="0 0 26 20" xmlns="http://www.w3.org/2000/svg">
    <path d="M15.903 12.132c-1.465 1.17-2.367 1.75-3.28 1.75-.872 0-1.754-.543-3.117-1.605l-8.117 7.14h22.85l-8.245-7.355-.093.07h.002zm-9.622-2.35a683.345 683.345 0 0 1-6.278-4.89v13.46c.006.04.014.08.025.12l8.179-7.199c-.593-.469-1.229-.953-1.923-1.49l-.003-.001zm19.546 8.881c.038-.1.06-.205.063-.312V4.32c-2.87 2.23-5.735 4.467-8.592 6.713l8.53 7.631zM24.272 0H1.618A2.248 2.248 0 0 0 0 1.618v1.275c2.387 1.9 4.978 3.899 7.174 5.593 1.21.935 2.296 1.775 3.157 2.443 2.309 1.81 2.309 1.81 4.665-.073 2.13-1.704 7.865-6.165 10.899-8.524V1.62A2.245 2.245 0 0 0 24.272 0z" fill="#FFF" fill-rule="nonzero"/>
</svg>
