<svg width="38" height="38" viewBox="0 0 38 38" xmlns="http://www.w3.org/2000/svg">
    <path d="M12.938 20.433a1.498 1.498 0 1 0 2.997 0 1.498 1.498 0 0 0-2.997 0zM9.945 15.94a1.497 1.497 0 0 0-.56 2.886c.478-.752 1.129-1.435 1.911-2.031a1.494 1.494 0 0 0-1.351-.855zm12.05 7.689c-.62.488-1.843 1.01-3.067 1.01-1.221 0-2.45-.522-3.065-1.01a.889.889 0 0 0-1.099 1.398c1.07.849 2.705 1.394 4.164 1.394 1.461 0 3.096-.545 4.17-1.394a.888.888 0 0 0 .15-1.246v-.001a.893.893 0 0 0-1.253-.151zm7.127-3.452a5.45 5.45 0 0 1 .29 1.75c0 4.136-4.693 7.488-10.484 7.488-5.79 0-10.481-3.352-10.481-7.487 0-.602.1-1.19.29-1.751a2.996 2.996 0 1 1 3.823-4.198c1.507-.823 3.337-1.363 5.329-1.501l2.43-5.453a.887.887 0 0 1 1.06-.492l3.81 1.103a2.247 2.247 0 1 1 1.98 3.312 2.249 2.249 0 0 1-2.116-1.503l-3.42-.986-1.789 4.014c2.043.126 3.918.67 5.457 1.51a2.994 2.994 0 0 1 5.613 1.457 3.01 3.01 0 0 1-1.792 2.737zM18.928.298C8.638.298.293 8.642.293 18.934S8.637 37.57 18.928 37.57c10.293 0 18.637-8.344 18.637-18.636S29.221.298 18.928.298zm8.986 15.642c-.594 0-1.114.348-1.352.855.782.596 1.431 1.279 1.91 2.03a1.496 1.496 0 0 0-.558-2.887v.002zm-5.99 4.492a1.498 1.498 0 1 0 2.996 0 1.498 1.498 0 0 0-2.997 0z" fill="#FFF" fill-rule="evenodd"/>
</svg>
