<svg width="40" height="33" viewBox="0 0 40 33" xmlns="http://www.w3.org/2000/svg">
    <path d="M.727 29.211a22.858 22.858 0 0 0 12.378 3.628c14.992 0 23.462-12.663 22.952-24.02a16.35 16.35 0 0 0 4.028-4.18 16.143 16.143 0 0 1-4.636 1.27 8.088 8.088 0 0 0 3.549-4.467 16.186 16.186 0 0 1-5.126 1.961 8.067 8.067 0 0 0-5.896-2.55c-5.211 0-9.042 4.864-7.865 9.915C13.4 10.432 7.45 7.218 3.468 2.33 1.352 5.961 2.37 10.71 5.967 13.111a8.043 8.043 0 0 1-3.66-1.009c-.086 3.741 2.595 7.24 6.478 8.02a8.076 8.076 0 0 1-3.646.138 8.079 8.079 0 0 0 7.543 5.607A16.227 16.227 0 0 1 .727 29.211" fill="#FFF" fill-rule="evenodd"/>
</svg>
